PathFileType	4	(x/y/z)	S01_P20_T24
DataRate	CameraRate	NumFrames	NumMarkers	Units	OrigDataRate	OrigDataStartFrame	OrigNumFrames
240	240	10	51	mm	240	201	400
Frame#	Time	Sternum			R.Acromium			L.Acromium			Top.Head			R.ASIS			L.ASIS			R.PSIS			L.PSIS			R.Great.Tro			L.Great.Tro			R.Iliac.Crest			L.Iliac.Crest			V.Sacral			R.Thigh.Upper.Post			R.Thigh.Lower.Ant			R.Thigh.Lower.Post			R.Thigh.Upper.Ant			R.Knee.Lat			R.Knee.Med			R.Shank.Upper.Post			R.Shank.Lower.Ant			R.Shank.Lower.Post			R.Shank.Upper.Ant			R.Ankle.Lat			R.Ankle.Med			R.Heel.Upper			R.Heel.Med			R.Heel.Lat			R.Toe.Lat			R.Toe.Med			R.Toe.Tip			L.Thigh.Upper.Post			L.Thigh.Lower.Ant			L.Thigh.Lower.Post			L.Thigh.Upper.Ant			L.Knee.Lat			L.Knee.Med			L.Shank.Upper.Post			L.Shank.Lower.Ant			L.Shank.Lower.Post			L.Shank.Upper.Ant			L.Ankle.Lat			L.Ankle.Med			L.Heel.Upper			L.Heel.Med			L.Heel.Lat			L.Toe.Lat			L.Toe.Med			L.Toe.Tip			Cervical.Spine			Back			
		X1	Y1	Z1	X2	Y2	Z2	X3	Y3	Z3	X4	Y4	Z4	X5	Y5	Z5	X6	Y6	Z6	X7	Y7	Z7	X8	Y8	Z8	X9	Y9	Z9	X10	Y10	Z10	X11	Y11	Z11	X12	Y12	Z12	X13	Y13	Z13	X14	Y14	Z14	X15	Y15	Z15	X16	Y16	Z16	X17	Y17	Z17	X18	Y18	Z18	X19	Y19	Z19	X20	Y20	Z20	X21	Y21	Z21	X22	Y22	Z22	X23	Y23	Z23	X24	Y24	Z24	X25	Y25	Z25	X26	Y26	Z26	X27	Y27	Z27	X28	Y28	Z28	X29	Y29	Z29	X30	Y30	Z30	X31	Y31	Z31	X32	Y32	Z32	X33	Y33	Z33	X34	Y34	Z34	X35	Y35	Z35	X36	Y36	Z36	X37	Y37	Z37	X38	Y38	Z38	X39	Y39	Z39	X40	Y40	Z40	X41	Y41	Z41	X42	Y42	Z42	X43	Y43	Z43	X44	Y44	Z44	X45	Y45	Z45	X46	Y46	Z46	X47	Y47	Z47	X48	Y48	Z48	X49	Y49	Z49	X50	Y50	Z50	X51	Y51	Z51	

201	0.83333	-216.57	1291.6	298.81	-308.93	1540	494.93	-373	1561.6	169.44	-313.6	1866.2	330.16	-258.87	1027.9	449.66	-273.34	1046	185.71	-499.86	1084.3	366.69	-506.01	1082.6	263.88	-339.62	974.6	528.04	-375.16	1001.3	103.7	-337.74	1128.9	521.81	-387.3	1132.1	120.56	-516.22	1046.7	313.56	-377.75	670.16	495.52	-314.55	594.54	464.87	-382.87	583.45	473.47	-305.11	682.31	488.05	-368.57	517.1	463.18	-367.88	522.02	321.11	-457.13	371.33	484.33	-417.17	278.99	438.05	-476.62	303.81	471.68	-400.62	348.45	457.23	-522.16	106.28	430.36	-491.89	109	337.31	-594.1	76.672	371.7	-579.68	45.921	343.38	-585.88	46.607	407.94	-397.33	35.463	472.04	-362	39.982	347.91	-300.33	55.025	405.29	-286.26	718.58	109.71	-181.07	685.83	99.203	-241.02	639.96	123.36	-233.64	764.11	85.945	-170	580.46	106.6	-127.52	587.69	247.13	-236.76	454.13	94.38	-186.22	357.27	113.3	-245.95	377.26	99.31	-176.39	432.83	103.4	-289.2	170	136.57	-246.54	176.87	228.84	-357.42	147.03	194.38	-343.86	120.85	226.23	-355.5	120.05	164.91	-161.65	77.659	98.398	-115.23	85.623	213.9	-61.693	89.441	152.54	-421.24	1605.8	348.25	-508.2	1298.3	363.72
202	0.8375	-211.19	1290.6	298.47	-303.2	1539.1	494.66	-367.4	1560.8	169.21	-308.2	1865.5	329.91	-253.67	1027	449.51	-268.27	1045.3	185.5	-494.68	1083.6	366.34	-500.81	1082	263.55	-334.72	973.92	527.81	-369.84	1000.7	103.36	-332.54	1128	521.56	-382.17	1131.3	120.27	-511.04	1046.1	313.22	-374.91	669.91	495.25	-312.34	593.94	464.54	-380.63	583.25	473.27	-302.2	681.59	487.74	-366.97	516.68	462.95	-366.25	521.61	320.79	-456.14	371.25	484.13	-416.5	278.77	437.89	-475.85	303.8	471.47	-399.71	348.18	457.05	-522.04	106.34	430.21	-491.72	108.93	337.16	-594.04	76.719	371.54	-579.57	45.929	343.31	-585.83	46.708	407.85	-397.33	35.403	471.99	-361.94	39.972	347.88	-300.25	54.874	405.32	-280.55	718.03	109.81	-175.28	685.48	99.464	-235.16	639.51	123.6	-228.03	763.65	86.046	-163.47	580.32	106.79	-121.62	587.66	247.38	-227.22	452.33	93.879	-174.43	356.68	112.8	-234.56	375.22	98.622	-166.4	432.47	103.16	-272.65	166.72	135.13	-230.47	174.3	227.6	-340.48	141.99	192.64	-326.37	115.97	224.48	-337.76	115.06	163.11	-142.77	77.524	97.227	-96.958	86.19	212.9	-43.318	91.456	151.76	-415.67	1605.1	348.09	-502.7	1297.6	363.52
203	0.84167	-205.79	1289.6	298.12	-297.5	1538.2	494.37	-361.77	1559.9	168.96	-302.78	1864.7	329.66	-248.44	1026.1	449.34	-263.17	1044.4	185.26	-489.48	1082.9	365.99	-495.58	1081.2	263.21	-329.79	973.21	527.58	-364.51	1000	103.01	-327.31	1127.1	521.29	-377.02	1130.5	119.97	-505.85	1045.3	312.89	-372.02	669.64	494.98	-310.07	593.3	464.2	-378.33	583.01	473.06	-299.22	680.84	487.44	-365.3	516.23	462.72	-364.56	521.19	320.46	-455.1	371.16	483.92	-415.8	278.53	437.72	-475.05	303.78	471.25	-398.75	347.89	456.87	-521.91	106.41	430.06	-491.53	108.86	337.02	-593.96	76.77	371.39	-579.46	45.94	343.24	-585.77	46.815	407.75	-397.34	35.337	471.94	-361.88	39.962	347.84	-300.17	54.713	405.36	-274.9	717.36	109.91	-169.57	684.99	99.71	-229.38	638.94	123.84	-222.49	763.06	86.14	-157	580.08	106.99	-115.82	587.49	247.66	-217.71	450.53	93.368	-162.72	356.13	112.32	-223.21	373.22	97.924	-156.47	432.11	102.94	-256.15	163.59	133.68	-214.5	171.88	226.37	-323.57	137.11	190.85	-308.92	111.27	222.71	-320.04	110.25	161.29	-123.99	77.582	96.137	-78.873	86.94	212	-25.13	93.647	151.11	-410.09	1604.4	347.91	-497.21	1296.9	363.28
204	0.84583	-200.39	1288.4	297.76	-291.81	1537.2	494.07	-356.11	1558.9	168.69	-297.35	1863.9	329.4	-243.18	1025.1	449.18	-258.02	1043.5	185	-484.26	1082.2	365.63	-490.34	1080.4	262.86	-324.84	972.47	527.35	-359.17	999.23	102.66	-322.05	1126.1	521.01	-371.84	1129.6	119.65	-500.64	1044.6	312.55	-369.06	669.32	494.72	-307.73	592.63	463.86	-375.95	582.74	472.85	-296.19	680.05	487.14	-363.57	515.77	462.49	-362.81	520.75	320.13	-454.01	371.06	483.71	-415.06	278.28	437.55	-474.2	303.76	471.03	-397.74	347.59	456.69	-521.77	106.47	429.9	-491.33	108.79	336.87	-593.89	76.828	371.23	-579.34	45.955	343.15	-585.7	46.929	407.65	-397.34	35.267	471.88	-361.81	39.953	347.81	-300.09	54.542	405.4	-269.31	716.58	110	-163.93	684.38	99.938	-223.67	638.25	124.08	-217.01	762.35	86.225	-150.59	579.75	107.18	-110.11	587.18	247.95	-208.24	448.74	92.852	-151.11	355.61	111.84	-211.91	371.27	97.221	-146.62	431.74	102.72	-239.71	160.62	132.25	-198.66	169.6	225.17	-306.72	132.4	189.04	-291.57	106.75	220.91	-302.38	105.63	159.44	-105.35	77.83	95.136	-61.003	87.868	211.22	-7.1583	96.01	150.6	-404.53	1603.5	347.7	-491.72	1296.1	363.02
205	0.85	-194.97	1287.3	297.39	-286.13	1536.2	493.75	-350.4	1557.9	168.4	-291.9	1863	329.14	-237.9	1024	449	-252.83	1042.6	184.71	-479.01	1081.4	365.26	-485.07	1079.5	262.5	-319.87	971.69	527.13	-353.82	998.35	102.3	-316.77	1125.1	520.71	-366.65	1128.7	119.31	-495.41	1043.7	312.2	-366.04	668.97	494.47	-305.32	591.92	463.51	-373.51	582.44	472.64	-293.1	679.23	486.85	-361.77	515.28	462.26	-361	520.3	319.79	-452.87	370.96	483.49	-414.28	278.01	437.38	-473.32	303.74	470.8	-396.68	347.26	456.51	-521.63	106.54	429.75	-491.12	108.72	336.72	-593.8	76.894	371.06	-579.23	45.976	343.06	-585.63	47.054	407.54	-397.34	35.194	471.83	-361.73	39.945	347.78	-300	54.362	405.45	-263.77	715.7	110.09	-158.34	683.65	100.15	-218.02	637.46	124.3	-211.58	761.52	86.295	-144.23	579.32	107.38	-104.48	586.74	248.26	-198.81	446.96	92.334	-139.61	355.12	111.38	-200.69	369.36	96.518	-136.86	431.36	102.52	-223.38	157.8	130.83	-182.99	167.47	223.99	-289.96	127.87	187.21	-274.33	102.41	219.1	-284.8	101.2	157.57	-86.88	78.263	94.23	-43.378	88.968	210.54	10.565	98.533	150.23	-398.97	1602.7	347.47	-486.24	1295.2	362.73
206	0.85417	-189.54	1286	297.01	-280.47	1535.1	493.41	-344.67	1556.8	168.09	-286.44	1862.1	328.86	-232.59	1022.9	448.81	-247.6	1041.5	184.39	-473.73	1080.5	364.88	-479.78	1078.6	262.14	-314.87	970.88	526.9	-348.46	997.38	101.94	-311.46	1124.1	520.39	-361.42	1127.6	118.95	-490.15	1042.8	311.85	-362.95	668.59	494.22	-302.84	591.18	463.16	-371	582.1	472.43	-289.95	678.37	486.56	-359.89	514.76	462.02	-359.12	519.84	319.46	-451.68	370.85	483.27	-413.46	277.74	437.21	-472.39	303.71	470.58	-395.58	346.92	456.32	-521.47	106.61	429.59	-490.9	108.66	336.56	-593.71	76.973	370.9	-579.11	46.006	342.96	-585.56	47.191	407.43	-397.35	35.122	471.78	-361.65	39.937	347.74	-299.91	54.172	405.5	-258.27	714.72	110.15	-152.79	682.81	100.33	-212.41	636.57	124.52	-206.2	760.59	86.348	-137.92	578.81	107.58	-98.921	586.17	248.59	-189.44	445.21	91.822	-128.23	354.67	110.93	-189.56	367.51	95.82	-127.19	430.98	102.34	-207.19	155.14	129.43	-167.5	165.49	222.85	-273.34	123.52	185.37	-257.25	98.273	217.29	-267.35	96.961	155.71	-68.625	78.872	93.419	-26.029	90.228	209.98	28.007	101.2	150	-393.42	1601.7	347.22	-480.77	1294.2	362.42
207	0.85833	-184.09	1284.7	296.62	-274.83	1533.9	493.07	-338.91	1555.6	167.75	-280.97	1861.1	328.57	-227.26	1021.8	448.6	-242.32	1040.4	184.05	-468.43	1079.6	364.49	-474.47	1077.6	261.77	-309.84	970.04	526.66	-343.09	996.33	101.57	-306.13	1123	520.07	-356.16	1126.5	118.57	-484.87	1041.9	311.49	-359.8	668.17	493.97	-300.28	590.41	462.82	-368.42	581.74	472.21	-286.74	677.49	486.28	-357.94	514.23	461.79	-357.17	519.36	319.12	-450.44	370.73	483.05	-412.6	277.44	437.04	-471.42	303.68	470.35	-394.42	346.56	456.13	-521.3	106.7	429.42	-490.67	108.61	336.4	-593.6	77.068	370.73	-578.99	46.047	342.85	-585.48	47.342	407.31	-397.35	35.052	471.73	-361.56	39.931	347.71	-299.81	53.973	405.56	-252.8	713.64	110.2	-147.28	681.86	100.49	-206.85	635.58	124.72	-200.84	759.55	86.378	-131.63	578.22	107.79	-93.432	585.48	248.95	-180.13	443.47	91.321	-116.98	354.25	110.51	-178.53	365.72	95.134	-117.62	430.59	102.17	-191.17	152.64	128.07	-152.23	163.65	221.75	-256.87	119.35	183.54	-240.36	94.326	215.49	-250.07	92.925	153.87	-50.623	79.646	92.705	-8.9871	91.634	209.53	45.135	104	149.91	-387.89	1600.7	346.94	-475.3	1293.2	362.07
208	0.8625	-178.63	1283.3	296.21	-269.21	1532.7	492.7	-333.12	1554.4	167.39	-275.49	1860	328.26	-221.91	1020.7	448.38	-237	1039.2	183.69	-463.1	1078.6	364.08	-469.13	1076.5	261.39	-304.78	969.18	526.42	-337.69	995.2	101.2	-300.78	1121.9	519.72	-350.87	1125.3	118.17	-479.56	1040.9	311.12	-356.58	667.71	493.73	-297.64	589.6	462.49	-365.77	581.34	472	-283.47	676.58	486	-355.92	513.67	461.56	-355.14	518.87	318.77	-449.13	370.6	482.83	-411.68	277.14	436.86	-470.39	303.65	470.12	-393.2	346.19	455.94	-521.12	106.79	429.26	-490.43	108.56	336.25	-593.49	77.18	370.55	-578.86	46.104	342.73	-585.39	47.51	407.18	-397.35	34.986	471.7	-361.46	39.926	347.68	-299.71	53.764	405.62	-247.33	712.48	110.22	-141.78	680.82	100.63	-201.3	634.51	124.9	-195.49	758.42	86.383	-125.37	577.56	108	-88.001	584.68	249.32	-170.89	441.76	90.838	-105.89	353.86	110.11	-167.62	363.99	94.465	-108.15	430.2	102.03	-175.36	150.3	126.76	-137.21	161.94	220.7	-240.62	115.36	181.74	-223.69	90.573	213.73	-232.99	89.092	152.06	-32.918	80.57	92.085	7.7158	93.167	209.19	61.913	106.91	149.94	-382.36	1599.7	346.63	-469.83	1292.1	361.7
209	0.86667	-173.15	1281.9	295.79	-263.61	1531.4	492.32	-327.33	1553.1	167.01	-269.99	1858.9	327.94	-216.55	1019.5	448.14	-231.62	1037.9	183.3	-457.74	1077.6	363.67	-463.77	1075.4	261	-299.69	968.28	526.17	-332.27	993.98	100.82	-295.41	1120.7	519.37	-345.55	1124	117.75	-474.22	1039.9	310.75	-353.3	667.22	493.49	-294.91	588.76	462.16	-363.04	580.92	471.78	-280.15	675.65	485.73	-353.81	513.09	461.32	-353.03	518.36	318.43	-447.76	370.48	482.61	-410.72	276.82	436.7	-469.32	303.62	469.89	-391.92	345.79	455.76	-520.92	106.89	429.1	-490.17	108.53	336.09	-593.36	77.314	370.37	-578.73	46.18	342.61	-585.31	47.696	407.04	-397.35	34.926	471.67	-361.35	39.924	347.65	-299.61	53.547	405.68	-241.87	711.24	110.22	-136.29	679.7	100.75	-195.76	633.36	125.07	-190.15	757.2	86.358	-119.13	576.82	108.21	-82.616	583.77	249.71	-161.74	440.08	90.38	-94.962	353.48	109.74	-156.84	362.31	93.821	-98.807	429.79	101.92	-159.8	148.11	125.5	-122.47	160.37	219.71	-224.6	111.56	179.98	-207.28	87.012	212.01	-216.17	85.459	150.29	-15.553	81.624	91.555	24.049	94.806	208.94	78.309	109.9	150.07	-376.84	1598.6	346.29	-464.37	1291	361.3
210	0.87083	-167.65	1280.5	295.37	-258.02	1530.1	491.92	-321.52	1551.8	166.6	-264.49	1857.8	327.6	-211.16	1018.2	447.88	-226.2	1036.6	182.9	-452.34	1076.6	363.23	-458.38	1074.3	260.59	-294.57	967.36	525.91	-326.82	992.69	100.43	-290.01	1119.5	519	-340.19	1122.6	117.31	-468.85	1038.8	310.36	-349.94	666.7	493.25	-292.1	587.89	461.84	-360.23	580.46	471.56	-276.76	674.69	485.45	-351.62	512.49	461.1	-350.84	517.83	318.09	-446.33	370.34	482.38	-409.7	276.49	436.53	-468.2	303.59	469.65	-390.58	345.38	455.58	-520.71	107	428.93	-489.9	108.51	335.93	-593.22	77.474	370.18	-578.6	46.277	342.47	-585.22	47.903	406.9	-397.36	34.874	471.66	-361.23	39.923	347.63	-299.5	53.32	405.74	-236.4	709.93	110.18	-130.79	678.49	100.84	-190.22	632.14	125.22	-184.78	755.91	86.299	-112.9	576.02	108.42	-77.267	582.77	250.12	-152.69	438.43	89.955	-84.216	353.12	109.4	-146.22	360.69	93.208	-89.589	429.36	101.82	-144.53	146.06	124.31	-108.03	158.91	218.78	-208.87	107.95	178.29	-191.18	83.639	210.36	-199.64	82.025	148.59	1.4261	82.786	91.111	39.983	96.526	208.78	94.288	112.94	150.3	-371.33	1597.4	345.93	-458.9	1289.8	360.87
